# xmcd
#
# Track frame offsets: 
#        150
#        19825
#        34601
#        55052
#        84551
#        98464
#        112977
#        130912
#        143888
#        156847
#        177135
#        201173
#        218311
#        231775
#        248950
#        264175
#        271526
#
# Disc length: 3894 seconds
#
# Revision: 0
# Processed by: cddbd v1.5.2PL0 Copyright (c) Steve Scherf et al.
# Submitted via: ExactAudioCopy v0.99pb4
#
DISCID=d20f3411
DTITLE=William Clarke - Can't You Hear Me Calling
DYEAR=2011
DGENRE=Blues
TTITLE0=Give Me Mine Now
TTITLE1=She's Gone
TTITLE2=Lookin' For Trouble
TTITLE3=No Lie
TTITLE4=Willie's Walk
TTITLE5=She's Dynamite
TTITLE6=Can't You Hear Me Calling
TTITLE7=The Pleaser
TTITLE8=Bite Again, Bite Again
TTITLE9=West Coast Walk
TTITLE10=Ice Cream Man
TTITLE11=Find A New Place To Live
TTITLE12=Now That You're Gone
TTITLE13=Love You, Yes I Do
TTITLE14=When I Get Drunk
TTITLE15=Let's Celebrate Life
TTITLE16=Watson, I Presume
EXTD=
EXTT0=
EXTT1=
EXTT2=
EXTT3=
EXTT4=
EXTT5=
EXTT6=
EXTT7=
EXTT8=
EXTT9=
EXTT10=
EXTT11=
EXTT12=
EXTT13=
EXTT14=
EXTT15=
EXTT16=
PLAYORDER=
